<svg width="86" height="85" viewBox="0 0 86 85" fill="none" xmlns="http://www.w3.org/2000/svg">
<g clip-path="url(#clip0_2019_96)">
<path d="M69.91 9.93001C53.98 -3.54999 30.08 -3.26999 14.44 10.54C-4.12999 26.93 -4.78999 55.3 12.46 72.55C21.86 81.95 34.57 86.02 46.85 84.77C49.82 84.47 50.94 80.84 48.82 78.74C48.8 78.72 48.78 78.7 48.76 78.68C40.38 70.3 40.46 56.68 48.98 48.39C56.6 40.98 68.91 40.44 77.18 47.12C77.24 47.17 77.3 47.22 77.36 47.27C80.32 49.72 84.87 47.89 85.01 44.04C85.47 31.52 80.44 18.85 69.91 9.93001ZM8.28001 42.53C8.28001 39.17 11 36.45 14.36 36.45C17.72 36.45 20.44 39.17 20.44 42.53C20.44 45.89 17.72 48.61 14.36 48.61C11 48.61 8.28001 45.89 8.28001 42.53ZM26.9 66.74C24.53 69.11 20.68 69.11 18.31 66.74C15.94 64.37 15.94 60.52 18.31 58.15C20.68 55.78 24.53 55.78 26.9 58.15C29.27 60.52 29.27 64.37 26.9 66.74ZM26.9 26.91C24.53 29.28 20.68 29.28 18.31 26.91C15.94 24.54 15.94 20.69 18.31 18.32C20.68 15.95 24.53 15.95 26.9 18.32C29.27 20.69 29.27 24.54 26.9 26.91ZM42.52 20.44C39.16 20.44 36.44 17.72 36.44 14.36C36.44 11 39.16 8.28001 42.52 8.28001C45.88 8.28001 48.6 11 48.6 14.36C48.6 17.72 45.88 20.44 42.52 20.44Z" fill="#FF94AD"/>
</g>
<defs>
<clipPath id="clip0_2019_96">
<rect width="85.04" height="84.98" fill="white"/>
</clipPath>
</defs>
</svg>
