<svg width="170" height="170" viewBox="0 0 170 170" fill="none" xmlns="http://www.w3.org/2000/svg">
<path d="M0 0H170V170H0V0Z" fill="#FFE3EA"/>
<path d="M41.0765 90.1591C40.3606 90.1591 39.7441 89.9901 39.2271 89.652C38.71 89.3139 38.3123 88.8482 38.0339 88.255C37.7555 87.6617 37.6163 86.9839 37.6163 86.2216C37.6163 85.446 37.7588 84.7616 38.0439 84.1683C38.3322 83.5717 38.7333 83.1061 39.247 82.7713C39.764 82.4332 40.3672 82.2642 41.0566 82.2642C41.5936 82.2642 42.0775 82.3636 42.5083 82.5625C42.9392 82.7614 43.2922 83.0398 43.5673 83.3977C43.8424 83.7557 44.0131 84.1733 44.0794 84.6506H42.9061C42.8166 84.3026 42.6177 83.9943 42.3095 83.7259C42.0046 83.4541 41.5936 83.3182 41.0765 83.3182C40.6191 83.3182 40.2181 83.4375 39.8734 83.6761C39.532 83.9115 39.2652 84.2446 39.073 84.6754C38.8841 85.103 38.7896 85.6051 38.7896 86.1818C38.7896 86.7718 38.8824 87.2855 39.068 87.723C39.2569 88.1605 39.5221 88.5002 39.8635 88.7422C40.2082 88.9841 40.6125 89.1051 41.0765 89.1051C41.3815 89.1051 41.6582 89.0521 41.9068 88.946C42.1554 88.84 42.3658 88.6875 42.5382 88.4886C42.7105 88.2898 42.8332 88.0511 42.9061 87.7727H44.0794C44.0131 88.2235 43.849 88.6295 43.5872 88.9908C43.3287 89.3487 42.9856 89.6338 42.5581 89.8459C42.1338 90.0547 41.64 90.1591 41.0765 90.1591ZM48.8968 90.1591C48.2074 90.1591 47.6026 89.995 47.0822 89.6669C46.5652 89.3388 46.1608 88.8797 45.8691 88.2898C45.5808 87.6998 45.4366 87.0104 45.4366 86.2216C45.4366 85.4261 45.5808 84.7318 45.8691 84.1385C46.1608 83.5452 46.5652 83.0845 47.0822 82.7564C47.6026 82.4283 48.2074 82.2642 48.8968 82.2642C49.5862 82.2642 50.1895 82.4283 50.7065 82.7564C51.2269 83.0845 51.6312 83.5452 51.9196 84.1385C52.2112 84.7318 52.3571 85.4261 52.3571 86.2216C52.3571 87.0104 52.2112 87.6998 51.9196 88.2898C51.6312 88.8797 51.2269 89.3388 50.7065 89.6669C50.1895 89.995 49.5862 90.1591 48.8968 90.1591ZM48.8968 89.1051C49.4205 89.1051 49.8514 88.9709 50.1895 88.7024C50.5275 88.4339 50.7778 88.081 50.9402 87.6435C51.1026 87.206 51.1838 86.732 51.1838 86.2216C51.1838 85.7112 51.1026 85.2356 50.9402 84.7947C50.7778 84.3539 50.5275 83.9976 50.1895 83.7259C49.8514 83.4541 49.4205 83.3182 48.8968 83.3182C48.3732 83.3182 47.9423 83.4541 47.6042 83.7259C47.2662 83.9976 47.0159 84.3539 46.8535 84.7947C46.6911 85.2356 46.6099 85.7112 46.6099 86.2216C46.6099 86.732 46.6911 87.206 46.8535 87.6435C47.0159 88.081 47.2662 88.4339 47.6042 88.7024C47.9423 88.9709 48.3732 89.1051 48.8968 89.1051ZM54.1481 90V82.3636H55.2816V83.5568H55.381C55.5401 83.1491 55.797 82.8326 56.1516 82.6072C56.5063 82.3786 56.9322 82.2642 57.4293 82.2642C57.9331 82.2642 58.3524 82.3786 58.6871 82.6072C59.0252 82.8326 59.2887 83.1491 59.4776 83.5568H59.5572C59.7527 83.1624 60.046 82.8492 60.4371 82.6172C60.8282 82.3819 61.2972 82.2642 61.8441 82.2642C62.5269 82.2642 63.0853 82.478 63.5195 82.9055C63.9537 83.3298 64.1708 83.991 64.1708 84.8892V90H62.9975V84.8892C62.9975 84.3258 62.8434 83.9231 62.5352 83.6811C62.2269 83.4392 61.864 83.3182 61.4464 83.3182C60.9094 83.3182 60.4935 83.4806 60.1985 83.8054C59.9035 84.1269 59.756 84.5346 59.756 85.0284V90H58.5629V84.7699C58.5629 84.3357 58.422 83.986 58.1403 83.7209C57.8585 83.4524 57.4956 83.3182 57.0515 83.3182C56.7466 83.3182 56.4615 83.3994 56.1964 83.5618C55.9345 83.7242 55.7224 83.9496 55.56 84.2379C55.4009 84.523 55.3214 84.8527 55.3214 85.2273V90H54.1481ZM66.3161 90V82.3636H67.4893V90H66.3161ZM66.9126 81.0909C66.6839 81.0909 66.4867 81.013 66.321 80.8572C66.1586 80.7015 66.0774 80.5142 66.0774 80.2955C66.0774 80.0767 66.1586 79.8894 66.321 79.7337C66.4867 79.5779 66.6839 79.5 66.9126 79.5C67.1413 79.5 67.3369 79.5779 67.4993 79.7337C67.665 79.8894 67.7479 80.0767 67.7479 80.2955C67.7479 80.5142 67.665 80.7015 67.4993 80.8572C67.3369 81.013 67.1413 81.0909 66.9126 81.0909ZM70.8116 85.4062V90H69.6383V82.3636H70.7718V83.5568H70.8713C71.0502 83.169 71.322 82.8575 71.6866 82.6222C72.0512 82.3835 72.5218 82.2642 73.0985 82.2642C73.6156 82.2642 74.068 82.3703 74.4558 82.5824C74.8436 82.7912 75.1452 83.1094 75.3606 83.5369C75.5761 83.9612 75.6838 84.4981 75.6838 85.1477V90H74.5105V85.2273C74.5105 84.6274 74.3547 84.16 74.0431 83.8253C73.7316 83.4872 73.304 83.3182 72.7605 83.3182C72.3859 83.3182 72.0512 83.3994 71.7562 83.5618C71.4645 83.7242 71.2342 83.9612 71.0652 84.2727C70.8961 84.5843 70.8116 84.9621 70.8116 85.4062ZM80.9102 93.0227C80.3434 93.0227 79.8562 92.9498 79.4485 92.804C79.0408 92.6615 78.7011 92.4725 78.4293 92.2372C78.1609 92.0052 77.9471 91.7566 77.788 91.4915L78.7227 90.8352C78.8287 90.9744 78.9629 91.1335 79.1254 91.3125C79.2878 91.4948 79.5098 91.6522 79.7915 91.7848C80.0766 91.9207 80.4495 91.9886 80.9102 91.9886C81.5266 91.9886 82.0354 91.8395 82.4364 91.5412C82.8375 91.2429 83.038 90.7756 83.038 90.1392V88.5881H82.9386C82.8524 88.7273 82.7298 88.8996 82.5707 89.1051C82.4149 89.3073 82.1895 89.4879 81.8945 89.647C81.6029 89.8028 81.2085 89.8807 80.7113 89.8807C80.0948 89.8807 79.5413 89.7348 79.0508 89.4432C78.5636 89.1515 78.1774 88.7273 77.8924 88.1705C77.6107 87.6136 77.4698 86.9375 77.4698 86.142C77.4698 85.3598 77.6074 84.6787 77.8825 84.0987C78.1576 83.5154 78.5404 83.0646 79.0309 82.7464C79.5214 82.425 80.0882 82.2642 80.7312 82.2642C81.2283 82.2642 81.6228 82.3471 81.9144 82.5128C82.2094 82.6752 82.4348 82.8608 82.5906 83.0696C82.7496 83.2751 82.8723 83.4441 82.9585 83.5767H83.0778V82.3636H84.2113V90.2188C84.2113 90.875 84.0621 91.4086 83.7638 91.8196C83.4689 92.2339 83.0711 92.5372 82.5707 92.7294C82.0735 92.925 81.52 93.0227 80.9102 93.0227ZM80.8704 88.8267C81.341 88.8267 81.7388 88.719 82.0636 88.5036C82.3884 88.2881 82.6353 87.9782 82.8043 87.5739C82.9734 87.1695 83.0579 86.6856 83.0579 86.1222C83.0579 85.572 82.975 85.0864 82.8093 84.6655C82.6436 84.2446 82.3983 83.9148 82.0735 83.6761C81.7487 83.4375 81.3477 83.3182 80.8704 83.3182C80.3732 83.3182 79.9589 83.4441 79.6275 83.696C79.2994 83.9479 79.0524 84.286 78.8867 84.7102C78.7243 85.1345 78.6431 85.6051 78.6431 86.1222C78.6431 86.6525 78.726 87.1214 78.8917 87.5291C79.0607 87.9335 79.3093 88.2517 79.6374 88.4837C79.9689 88.7124 80.3799 88.8267 80.8704 88.8267ZM95.7056 84.0739L94.6516 84.3722C94.5853 84.1965 94.4876 84.0258 94.3583 83.8601C94.2324 83.6911 94.06 83.5518 93.8413 83.4425C93.6225 83.3331 93.3424 83.2784 93.0011 83.2784C92.5337 83.2784 92.1443 83.3861 91.8327 83.6016C91.5245 83.8137 91.3704 84.0838 91.3704 84.4119C91.3704 84.7036 91.4764 84.9339 91.6886 85.103C91.9007 85.272 92.2321 85.4129 92.6829 85.5256L93.8164 85.804C94.4992 85.9697 95.0079 86.2232 95.3427 86.5646C95.6774 86.9027 95.8448 87.3385 95.8448 87.8722C95.8448 88.3097 95.7189 88.7008 95.467 89.0455C95.2184 89.3902 94.8704 89.6619 94.4229 89.8608C93.9755 90.0597 93.4551 90.1591 92.8619 90.1591C92.083 90.1591 91.4383 89.9901 90.9279 89.652C90.4175 89.3139 90.0943 88.8201 89.9585 88.1705L91.0721 87.892C91.1781 88.303 91.3787 88.6113 91.6737 88.8168C91.9719 89.0223 92.3614 89.125 92.842 89.125C93.3888 89.125 93.823 89.009 94.1445 88.777C94.4693 88.5417 94.6317 88.2599 94.6317 87.9318C94.6317 87.6667 94.5389 87.4446 94.3533 87.2656C94.1677 87.0833 93.8827 86.9474 93.4982 86.858L92.2255 86.5597C91.5262 86.3939 91.0124 86.1371 90.6843 85.7891C90.3595 85.4377 90.1971 84.9986 90.1971 84.4716C90.1971 84.0407 90.3181 83.6596 90.56 83.3281C90.8053 82.9967 91.1384 82.7365 91.5593 82.5476C91.9835 82.3587 92.4641 82.2642 93.0011 82.2642C93.7567 82.2642 94.35 82.4299 94.7809 82.7614C95.2151 83.0928 95.5233 83.5303 95.7056 84.0739ZM100.713 90.1591C100.024 90.1591 99.419 89.995 98.8986 89.6669C98.3816 89.3388 97.9772 88.8797 97.6855 88.2898C97.3972 87.6998 97.253 87.0104 97.253 86.2216C97.253 85.4261 97.3972 84.7318 97.6855 84.1385C97.9772 83.5452 98.3816 83.0845 98.8986 82.7564C99.419 82.4283 100.024 82.2642 100.713 82.2642C101.403 82.2642 102.006 82.4283 102.523 82.7564C103.043 83.0845 103.448 83.5452 103.736 84.1385C104.028 84.7318 104.173 85.4261 104.173 86.2216C104.173 87.0104 104.028 87.6998 103.736 88.2898C103.448 88.8797 103.043 89.3388 102.523 89.6669C102.006 89.995 101.403 90.1591 100.713 90.1591ZM100.713 89.1051C101.237 89.1051 101.668 88.9709 102.006 88.7024C102.344 88.4339 102.594 88.081 102.757 87.6435C102.919 87.206 103 86.732 103 86.2216C103 85.7112 102.919 85.2356 102.757 84.7947C102.594 84.3539 102.344 83.9976 102.006 83.7259C101.668 83.4541 101.237 83.3182 100.713 83.3182C100.19 83.3182 99.7587 83.4541 99.4206 83.7259C99.0826 83.9976 98.8323 84.3539 98.6699 84.7947C98.5075 85.2356 98.4263 85.7112 98.4263 86.2216C98.4263 86.732 98.5075 87.206 98.6699 87.6435C98.8323 88.081 99.0826 88.4339 99.4206 88.7024C99.7587 88.9709 100.19 89.1051 100.713 89.1051ZM109.067 90.1591C108.377 90.1591 107.772 89.995 107.252 89.6669C106.735 89.3388 106.331 88.8797 106.039 88.2898C105.751 87.6998 105.607 87.0104 105.607 86.2216C105.607 85.4261 105.751 84.7318 106.039 84.1385C106.331 83.5452 106.735 83.0845 107.252 82.7564C107.772 82.4283 108.377 82.2642 109.067 82.2642C109.756 82.2642 110.359 82.4283 110.876 82.7564C111.397 83.0845 111.801 83.5452 112.089 84.1385C112.381 84.7318 112.527 85.4261 112.527 86.2216C112.527 87.0104 112.381 87.6998 112.089 88.2898C111.801 88.8797 111.397 89.3388 110.876 89.6669C110.359 89.995 109.756 90.1591 109.067 90.1591ZM109.067 89.1051C109.59 89.1051 110.021 88.9709 110.359 88.7024C110.697 88.4339 110.948 88.081 111.11 87.6435C111.272 87.206 111.354 86.732 111.354 86.2216C111.354 85.7112 111.272 85.2356 111.11 84.7947C110.948 84.3539 110.697 83.9976 110.359 83.7259C110.021 83.4541 109.59 83.3182 109.067 83.3182C108.543 83.3182 108.112 83.4541 107.774 83.7259C107.436 83.9976 107.186 84.3539 107.023 84.7947C106.861 85.2356 106.78 85.7112 106.78 86.2216C106.78 86.732 106.861 87.206 107.023 87.6435C107.186 88.081 107.436 88.4339 107.774 88.7024C108.112 88.9709 108.543 89.1051 109.067 89.1051ZM115.491 85.4062V90H114.318V82.3636H115.452V83.5568H115.551C115.73 83.169 116.002 82.8575 116.366 82.6222C116.731 82.3835 117.202 82.2642 117.778 82.2642C118.295 82.2642 118.748 82.3703 119.135 82.5824C119.523 82.7912 119.825 83.1094 120.04 83.5369C120.256 83.9612 120.363 84.4981 120.363 85.1477V90H119.19V85.2273C119.19 84.6274 119.034 84.16 118.723 83.8253C118.411 83.4872 117.984 83.3182 117.44 83.3182C117.066 83.3182 116.731 83.3994 116.436 83.5618C116.144 83.7242 115.914 83.9612 115.745 84.2727C115.576 84.5843 115.491 84.9621 115.491 85.4062ZM123.363 90.0795C123.117 90.0795 122.907 89.9917 122.731 89.8161C122.556 89.6404 122.468 89.4299 122.468 89.1847C122.468 88.9394 122.556 88.7289 122.731 88.5533C122.907 88.3776 123.117 88.2898 123.363 88.2898C123.608 88.2898 123.818 88.3776 123.994 88.5533C124.17 88.7289 124.257 88.9394 124.257 89.1847C124.257 89.3471 124.216 89.4962 124.133 89.6321C124.054 89.768 123.946 89.8774 123.81 89.9602C123.677 90.0398 123.528 90.0795 123.363 90.0795ZM127.218 90.0795C126.973 90.0795 126.762 89.9917 126.587 89.8161C126.411 89.6404 126.323 89.4299 126.323 89.1847C126.323 88.9394 126.411 88.7289 126.587 88.5533C126.762 88.3776 126.973 88.2898 127.218 88.2898C127.463 88.2898 127.674 88.3776 127.849 88.5533C128.025 88.7289 128.113 88.9394 128.113 89.1847C128.113 89.3471 128.071 89.4962 127.989 89.6321C127.909 89.768 127.801 89.8774 127.665 89.9602C127.533 90.0398 127.384 90.0795 127.218 90.0795ZM131.074 90.0795C130.828 90.0795 130.618 89.9917 130.442 89.8161C130.266 89.6404 130.179 89.4299 130.179 89.1847C130.179 88.9394 130.266 88.7289 130.442 88.5533C130.618 88.3776 130.828 88.2898 131.074 88.2898C131.319 88.2898 131.529 88.3776 131.705 88.5533C131.881 88.7289 131.968 88.9394 131.968 89.1847C131.968 89.3471 131.927 89.4962 131.844 89.6321C131.765 89.768 131.657 89.8774 131.521 89.9602C131.388 90.0398 131.239 90.0795 131.074 90.0795Z" fill="#FF94AD"/>
</svg>
