<svg width="100" height="100" viewBox="0 0 100 100" fill="none" xmlns="http://www.w3.org/2000/svg">
<path d="M18.852 64V41.14C18.852 39.844 19.056 38.728 19.464 37.792C19.872 36.856 20.472 36.136 21.264 35.632C22.08 35.128 23.1 34.876 24.324 34.876C24.9 34.876 25.452 34.936 25.98 35.056C26.532 35.176 27.036 35.332 27.492 35.524L26.844 37.792C26.124 37.432 25.38 37.252 24.612 37.252C23.652 37.252 22.932 37.588 22.452 38.26C21.996 38.932 21.768 39.916 21.768 41.212V64H18.852ZM16.188 46.936V44.74L18.996 44.56H26.016V46.936H16.188ZM33.3237 64.468C32.2677 64.468 31.3077 64.264 30.4437 63.856C29.6037 63.424 28.9317 62.8 28.4277 61.984C27.9237 61.168 27.6717 60.172 27.6717 58.996C27.6717 56.86 28.6317 55.228 30.5517 54.1C32.4957 52.972 35.5557 52.18 39.7317 51.724C39.7557 50.836 39.6477 49.996 39.4077 49.204C39.1917 48.412 38.7837 47.764 38.1837 47.26C37.5837 46.756 36.7197 46.504 35.5917 46.504C34.4157 46.504 33.3237 46.732 32.3157 47.188C31.3077 47.644 30.4317 48.136 29.6877 48.664L28.5357 46.576C29.0877 46.216 29.7477 45.844 30.5157 45.46C31.2837 45.076 32.1357 44.752 33.0717 44.488C34.0077 44.2 35.0037 44.056 36.0597 44.056C37.6197 44.056 38.8797 44.392 39.8397 45.064C40.8237 45.736 41.5317 46.66 41.9637 47.836C42.4197 49.012 42.6477 50.38 42.6477 51.94V64H40.2717L39.9837 61.624H39.8757C38.9397 62.416 37.9197 63.088 36.8157 63.64C35.7117 64.192 34.5477 64.468 33.3237 64.468ZM34.1157 62.092C35.0997 62.092 36.0357 61.864 36.9237 61.408C37.8117 60.928 38.7477 60.256 39.7317 59.392V53.704C37.4517 53.968 35.6277 54.328 34.2597 54.784C32.9157 55.24 31.9557 55.804 31.3797 56.476C30.8037 57.148 30.5157 57.928 30.5157 58.816C30.5157 59.992 30.8637 60.832 31.5597 61.336C32.2557 61.84 33.1077 62.092 34.1157 62.092ZM48.9699 64V35.344H51.8859V55.144H51.9939L60.5619 44.56H63.8379L57.3939 52.372L64.7379 64H61.5339L55.6659 54.352L51.8859 58.816V64H48.9699ZM75.5194 64.468C73.7914 64.468 72.2314 64.072 70.8394 63.28C69.4474 62.464 68.3314 61.3 67.4914 59.788C66.6754 58.252 66.2674 56.428 66.2674 54.316C66.2674 52.708 66.4954 51.28 66.9514 50.032C67.4314 48.784 68.0794 47.716 68.8954 46.828C69.7354 45.916 70.6714 45.232 71.7034 44.776C72.7354 44.296 73.8154 44.056 74.9434 44.056C76.5514 44.056 77.9194 44.428 79.0474 45.172C80.1994 45.892 81.0754 46.936 81.6754 48.304C82.2994 49.672 82.6114 51.292 82.6114 53.164C82.6114 53.476 82.5994 53.788 82.5754 54.1C82.5514 54.388 82.5154 54.664 82.4674 54.928H69.1834C69.2314 56.368 69.5434 57.628 70.1194 58.708C70.6954 59.764 71.4634 60.592 72.4234 61.192C73.4074 61.792 74.5474 62.092 75.8434 62.092C76.8034 62.092 77.6794 61.96 78.4714 61.696C79.2634 61.408 80.0314 61.012 80.7754 60.508L81.8194 62.524C81.0034 63.052 80.0794 63.508 79.0474 63.892C78.0394 64.276 76.8634 64.468 75.5194 64.468ZM69.1474 52.768H80.0194C80.0194 50.704 79.5754 49.132 78.6874 48.052C77.7994 46.972 76.5634 46.432 74.9794 46.432C74.0194 46.432 73.1194 46.684 72.2794 47.188C71.4394 47.692 70.7434 48.412 70.1914 49.348C69.6394 50.284 69.2914 51.424 69.1474 52.768Z" fill="#FF295B"/>
</svg>
