<svg width="89" height="80" viewBox="0 0 89 80" fill="none" xmlns="http://www.w3.org/2000/svg">
<g clip-path="url(#clip0_2019_83)">
<path d="M80.99 21.64H7.37C3.29966 21.64 0 24.9374 0 29.005C0 33.0726 3.29966 36.37 7.37 36.37H80.99C85.0603 36.37 88.36 33.0726 88.36 29.005C88.36 24.9374 85.0603 21.64 80.99 21.64Z" fill="#FF94AD"/>
<path d="M83.72 55.85H4.64C2.0774 55.85 0 57.9274 0 60.49V74.54C0 77.1026 2.0774 79.18 4.64 79.18H83.72C86.2826 79.18 88.36 77.1026 88.36 74.54V60.49C88.36 57.9274 86.2826 55.85 83.72 55.85Z" fill="#FF94AD"/>
<path d="M6.31 52.27C9.79492 52.27 12.62 49.4449 12.62 45.96C12.62 42.4751 9.79492 39.65 6.31 39.65C2.82508 39.65 0 42.4751 0 45.96C0 49.4449 2.82508 52.27 6.31 52.27Z" fill="#FF94AD"/>
<path d="M18.9399 52.27C22.4248 52.27 25.2499 49.4449 25.2499 45.96C25.2499 42.4751 22.4248 39.65 18.9399 39.65C15.455 39.65 12.6299 42.4751 12.6299 45.96C12.6299 49.4449 15.455 52.27 18.9399 52.27Z" fill="#FF94AD"/>
<path d="M31.56 52.27C35.0449 52.27 37.87 49.4449 37.87 45.96C37.87 42.4751 35.0449 39.65 31.56 39.65C28.0751 39.65 25.25 42.4751 25.25 45.96C25.25 49.4449 28.0751 52.27 31.56 52.27Z" fill="#FF94AD"/>
<path d="M44.1801 52.27C47.665 52.27 50.4901 49.4449 50.4901 45.96C50.4901 42.4751 47.665 39.65 44.1801 39.65C40.6952 39.65 37.8701 42.4751 37.8701 45.96C37.8701 49.4449 40.6952 52.27 44.1801 52.27Z" fill="#FF94AD"/>
<path d="M56.81 52.27C60.2949 52.27 63.12 49.4449 63.12 45.96C63.12 42.4751 60.2949 39.65 56.81 39.65C53.3251 39.65 50.5 42.4751 50.5 45.96C50.5 49.4449 53.3251 52.27 56.81 52.27Z" fill="#FF94AD"/>
<path d="M69.4301 52.27C72.915 52.27 75.7401 49.4449 75.7401 45.96C75.7401 42.4751 72.915 39.65 69.4301 39.65C65.9452 39.65 63.1201 42.4751 63.1201 45.96C63.1201 49.4449 65.9452 52.27 69.4301 52.27Z" fill="#FF94AD"/>
<path d="M82.05 52.27C85.5349 52.27 88.36 49.4449 88.36 45.96C88.36 42.4751 85.5349 39.65 82.05 39.65C78.5651 39.65 75.74 42.4751 75.74 45.96C75.74 49.4449 78.5651 52.27 82.05 52.27Z" fill="#FF94AD"/>
<path d="M40.9599 1.86L34.6499 12.79C33.2199 15.27 35.0099 18.36 37.8699 18.36H50.4899C53.3499 18.36 55.1399 15.26 53.7099 12.79L47.3999 1.86C45.9699 -0.62 42.3899 -0.62 40.9599 1.86Z" fill="#FF94AD"/>
</g>
<defs>
<clipPath id="clip0_2019_83">
<rect width="88.36" height="79.18" fill="white"/>
</clipPath>
</defs>
</svg>
